<?xml version="1.0" encoding="UTF-8"?>
<svg xmlns="http://www.w3.org/2000/svg" xmlns:xlink="http://www.w3.org/1999/xlink" width="912px" height="245px" viewBox="0 0 912 245">
  <!-- Generator: Sketch 54.1 (76490) - https://sketchapp.com -->
  <title>Mailchimp_Logo-Horizontal_Black</title>
  <desc>Created with Sketch.</desc>
  <defs>
    <polygon id="path-1" points="0.701 0.441 451.009 0.441 451.009 116.831 0.701 116.831"></polygon>
    <polygon id="path-3" points="0.000248912146 0.0372791776 230.809 0.0372791776 230.809 244.94 0.000248912146 244.94"></polygon>
  </defs>
  <g id="Mailchimp_Logo-Horizontal_Black" stroke="none" stroke-width="1" fill="none" fill-rule="evenodd">
    <path d="M353.279,93.67 C341.583,93.67 335.797,102.874 333.142,108.811 C331.659,112.126 331.244,114.747 330.041,114.747 C328.346,114.747 329.56,112.469 328.173,107.417 C326.348,100.77 320.847,93.67 309.159,93.67 C296.871,93.67 291.61,104.052 289.115,109.757 C287.409,113.657 287.407,114.747 286.095,114.747 C284.194,114.747 285.769,111.649 286.624,108.007 C288.309,100.836 287.028,95.356 287.028,95.356 L267.549,95.356 L267.549,168.602 L294.137,168.602 C294.137,168.602 294.137,137.991 294.137,132.159 C294.137,124.971 297.144,115.85 302.298,115.85 C308.253,115.85 309.445,120.423 309.445,128.892 C309.445,136.57 309.445,168.618 309.445,168.618 L336.14,168.618 C336.14,168.618 336.14,137.821 336.14,132.159 C336.14,125.761 338.751,115.85 344.34,115.85 C350.378,115.85 351.447,122.275 351.447,128.892 C351.447,135.509 351.447,168.602 351.447,168.602 L377.662,168.602 C377.662,168.602 377.662,139.58 377.662,125.529 C377.662,106.414 370.924,93.67 353.279,93.67" id="Fill-1" fill="#0A0B09"></path>
    <path d="M804.572,93.67 C792.876,93.67 787.089,102.874 784.434,108.811 C782.951,112.126 782.537,114.747 781.333,114.747 C779.638,114.747 780.773,111.853 779.466,107.417 C777.518,100.805 772.671,93.67 760.452,93.67 C748.164,93.67 742.902,104.052 740.408,109.757 C738.702,113.657 738.7,114.747 737.388,114.747 C735.487,114.747 737.061,111.649 737.917,108.007 C739.602,100.836 738.321,95.356 738.321,95.356 L718.841,95.356 L718.841,168.602 L745.43,168.602 C745.43,168.602 745.43,137.991 745.43,132.159 C745.43,124.971 748.437,115.85 753.591,115.85 C759.545,115.85 760.737,120.423 760.737,128.892 C760.737,136.57 760.737,168.618 760.737,168.618 L787.432,168.618 C787.432,168.618 787.432,137.821 787.432,132.159 C787.432,125.761 790.044,115.85 795.633,115.85 C801.671,115.85 802.74,122.275 802.74,128.892 C802.74,135.509 802.74,168.602 802.74,168.602 L828.955,168.602 C828.955,168.602 828.955,139.58 828.955,125.529 C828.955,106.414 822.217,93.67 804.572,93.67" id="Fill-2" fill="#0A0B09"></path>
    <path d="M416.588,151.483 C410.23,152.951 406.934,150.993 406.934,146.779 C406.934,141.006 412.905,138.694 421.428,138.694 C425.185,138.694 428.718,139.019 428.718,139.019 C428.718,141.49 423.354,149.922 416.588,151.483 Z M423.061,93.686 C402.694,93.686 388.08,101.174 388.08,101.174 L388.08,123.184 C388.08,123.184 404.219,113.905 417.311,113.905 C427.761,113.905 429.045,119.541 428.569,124.219 C428.569,124.219 425.556,123.421 416.358,123.421 C394.688,123.421 383.748,133.27 383.748,149.063 C383.748,164.043 396.043,170.305 406.401,170.305 C421.516,170.305 428.16,160.148 430.202,155.329 C431.619,151.986 431.877,149.733 433.15,149.733 C434.6,149.733 434.112,151.349 434.042,154.676 C433.919,160.503 434.193,164.908 435.117,168.618 L455.157,168.618 L455.157,132.571 C455.157,110.065 447.194,93.686 423.061,93.686 L423.061,93.686 Z" id="Fill-3" fill="#0A0B09"></path>
    <polygon id="Fill-4" fill="#0A0B09" points="498.953 168.618 525.542 168.618 525.542 73.183 498.953 73.183"></polygon>
    <path d="M554.808,131.995 C554.808,125.409 560.926,119.417 572.159,119.417 C584.398,119.417 594.242,125.31 596.45,126.648 L596.45,101.174 C596.45,101.174 588.673,93.686 569.558,93.686 C549.408,93.686 532.628,105.477 532.628,130.855 C532.628,156.233 547.856,170.305 569.504,170.305 C586.413,170.305 596.493,161.014 596.493,161.014 L596.493,136.818 C593.304,138.603 584.418,144.769 572.281,144.769 C559.429,144.769 554.808,138.857 554.808,131.995" id="Fill-5" fill="#0A0B09"></path>
    <path d="M650.31,93.686 C634.918,93.686 629.064,108.272 627.882,110.805 C626.699,113.337 626.115,114.794 625.147,114.763 C623.467,114.708 624.638,111.654 625.293,109.676 C626.531,105.94 629.154,96.137 629.154,84.089 C629.154,75.917 628.049,73.183 628.049,73.183 L605.096,73.183 L605.096,168.618 L631.685,168.618 C631.685,168.618 631.685,138.111 631.685,132.176 C631.685,126.239 634.054,115.866 640.752,115.866 C646.3,115.866 648.037,119.977 648.037,128.255 C648.037,136.532 648.037,168.618 648.037,168.618 L674.626,168.618 C674.626,168.618 674.626,146.295 674.626,129.848 C674.626,111.046 671.509,93.686 650.31,93.686" id="Fill-6" fill="#0A0B09"></path>
    <path d="M683.267,95.456 L683.267,168.618 L709.856,168.618 L709.856,95.456 C709.856,95.456 705.387,98.07 696.589,98.07 C687.792,98.07 683.267,95.456 683.267,95.456" id="Fill-7" fill="#0A0B09"></path>
    <path d="M696.483,72.441 C687.494,72.441 680.207,77.197 680.207,83.064 C680.207,88.93 687.494,93.686 696.483,93.686 C705.471,93.686 712.759,88.93 712.759,83.064 C712.759,77.197 705.471,72.441 696.483,72.441" id="Fill-8" fill="#0A0B09"></path>
    <path d="M463.761,95.456 L463.761,168.618 L490.349,168.618 L490.349,95.456 C490.349,95.456 485.88,98.07 477.082,98.07 C468.285,98.07 463.761,95.456 463.761,95.456" id="Fill-9" fill="#0A0B09"></path>
    <g id="Group-13" transform="translate(460.000000, 72.000000)">
      <mask id="mask-2" fill="white">
        <use xlink:href="#path-1"></use>
      </mask>
      <g id="Clip-11"></g>
      <path d="M16.976,0.441 C7.988,0.441 0.701,5.197 0.701,11.064 C0.701,16.93 7.988,21.686 16.976,21.686 C25.965,21.686 33.252,16.93 33.252,11.064 C33.252,5.197 25.965,0.441 16.976,0.441" id="Fill-10" fill="#0A0B09" mask="url(#mask-2)"></path>
      <path d="M414.483,80.878 C408.384,80.878 403.898,73.145 403.898,62.37 C403.898,51.906 408.506,43.866 414.272,43.866 C421.672,43.866 424.825,50.651 424.825,62.37 C424.825,74.561 421.918,80.878 414.483,80.878 Z M421.781,21.67 C408.113,21.67 401.849,31.919 399.126,37.757 C397.326,41.615 397.418,42.747 396.105,42.747 C394.204,42.747 395.78,39.649 396.636,36.007 C398.32,28.836 397.039,23.356 397.039,23.356 L377.559,23.356 L377.559,116.831 L404.148,116.831 C404.148,116.831 404.148,101.535 404.148,87.195 C407.294,92.532 413.122,98.235 422.107,98.235 C441.333,98.235 451.01,81.968 451.01,59.989 C451.01,35.078 439.426,21.67 421.781,21.67 L421.781,21.67 Z" id="Fill-12" fill="#0A0B09" mask="url(#mask-2)"></path>
    </g>
    <path d="M173.617,115.794 C175.405,115.581 177.118,115.571 178.692,115.794 C179.603,113.705 179.76,110.103 178.94,106.181 C177.722,100.351 176.074,96.823 172.667,97.372 C169.261,97.921 169.135,102.145 170.353,107.975 C171.038,111.254 172.258,114.057 173.617,115.794" id="Fill-14" fill="#1A1919"></path>
    <path d="M144.372,120.407 C146.809,121.477 148.307,122.186 148.893,121.566 C149.27,121.18 149.158,120.443 148.576,119.492 C147.373,117.528 144.898,115.537 142.273,114.418 C136.904,112.107 130.501,112.876 125.561,116.425 C123.931,117.62 122.385,119.275 122.606,120.28 C122.678,120.605 122.922,120.85 123.494,120.93 C124.839,121.084 129.537,118.708 134.949,118.377 C138.769,118.143 141.934,119.338 144.372,120.407" id="Fill-15" fill="#1A1919"></path>
    <path d="M139.469,123.205 C136.294,123.706 134.543,124.753 133.419,125.726 C132.46,126.564 131.867,127.491 131.872,128.143 C131.874,128.453 132.009,128.632 132.115,128.722 C132.26,128.849 132.431,128.92 132.637,128.92 C133.354,128.92 134.96,128.275 134.96,128.275 C139.378,126.694 142.292,126.886 145.18,127.215 C146.776,127.394 147.53,127.493 147.88,126.946 C147.984,126.789 148.109,126.449 147.79,125.931 C147.046,124.725 143.841,122.686 139.469,123.205" id="Fill-16" fill="#1A1919"></path>
    <path d="M163.742,133.475 C165.897,134.534 168.27,134.118 169.043,132.546 C169.815,130.975 168.694,128.842 166.538,127.782 C164.383,126.724 162.01,127.139 161.237,128.711 C160.465,130.283 161.586,132.415 163.742,133.475" id="Fill-17" fill="#1A1919"></path>
    <path d="M177.599,121.366 C175.848,121.336 174.396,123.259 174.355,125.66 C174.314,128.062 175.701,130.032 177.452,130.062 C179.203,130.092 180.656,128.169 180.696,125.768 C180.737,123.366 179.35,121.395 177.599,121.366" id="Fill-18" fill="#1A1919"></path>
    <g id="Group-22">
      <mask id="mask-4" fill="white">
        <use xlink:href="#path-3"></use>
      </mask>
      <g id="Clip-20"></g>
      <path d="M59.981,164.665 C59.546,164.119 58.83,164.285 58.137,164.447 C57.653,164.56 57.105,164.687 56.504,164.677 C55.216,164.652 54.125,164.102 53.513,163.161 C52.715,161.936 52.761,160.109 53.642,158.019 C53.76,157.736 53.9,157.423 54.053,157.082 C55.457,153.931 57.807,148.657 55.168,143.632 C53.182,139.85 49.943,137.494 46.048,137 C42.308,136.526 38.459,137.912 36.004,140.621 C32.13,144.895 31.524,150.711 32.273,152.766 C32.548,153.518 32.977,153.726 33.289,153.769 C33.949,153.857 34.923,153.378 35.534,151.735 C35.578,151.617 35.636,151.434 35.708,151.201 C35.98,150.333 36.487,148.716 37.317,147.42 C38.317,145.857 39.875,144.781 41.704,144.389 C43.568,143.99 45.472,144.346 47.066,145.39 C49.78,147.165 50.825,150.49 49.666,153.663 C49.068,155.304 48.095,158.441 48.309,161.02 C48.743,166.237 51.953,168.333 54.836,168.556 C57.639,168.661 59.599,167.088 60.095,165.937 C60.387,165.257 60.14,164.843 59.981,164.665" id="Fill-19" fill="#1A1919" mask="url(#mask-4)"></path>
      <path d="M86.634,68.831 C95.777,58.264 107.034,49.078 117.117,43.919 C117.466,43.741 117.836,44.12 117.647,44.462 C116.846,45.913 115.305,49.017 114.816,51.372 C114.74,51.739 115.139,52.015 115.449,51.804 C121.722,47.528 132.635,42.946 142.207,42.357 C142.618,42.332 142.817,42.859 142.49,43.11 C141.034,44.227 139.442,45.772 138.279,47.335 C138.081,47.601 138.267,47.984 138.599,47.986 C145.32,48.034 154.795,50.386 160.971,53.85 C161.389,54.084 161.091,54.893 160.624,54.786 C151.28,52.645 135.985,51.02 120.097,54.895 C105.913,58.354 95.087,63.696 87.189,69.44 C86.79,69.731 86.311,69.204 86.634,68.831 Z M169.882,175.655 C170.153,175.541 170.34,175.232 170.308,174.925 C170.27,174.547 169.933,174.272 169.555,174.311 C169.555,174.311 150.041,177.199 131.607,170.451 C133.615,163.925 138.954,166.281 147.024,166.933 C161.57,167.8 174.606,165.675 184.241,162.909 C192.59,160.514 203.555,155.79 212.072,149.067 C214.945,155.378 215.959,162.322 215.959,162.322 C215.959,162.322 218.183,161.925 220.041,163.068 C221.797,164.149 223.085,166.395 222.205,172.203 C220.414,183.054 215.802,191.86 208.051,199.962 C203.332,205.041 197.604,209.457 191.05,212.668 C187.569,214.496 183.863,216.078 179.948,217.356 C150.726,226.9 120.815,216.408 111.173,193.876 C110.404,192.182 109.753,190.409 109.24,188.554 C105.131,173.706 108.619,155.892 119.523,144.679 C119.524,144.678 119.522,144.674 119.523,144.673 C120.195,143.959 120.881,143.118 120.881,142.06 C120.881,141.175 120.319,140.241 119.831,139.579 C116.016,134.046 102.802,124.617 105.454,106.37 C107.359,93.261 118.823,84.029 129.512,84.576 C130.415,84.622 131.32,84.678 132.221,84.731 C136.853,85.006 140.894,85.6 144.707,85.759 C151.089,86.035 156.828,85.107 163.625,79.444 C165.918,77.533 167.756,75.876 170.867,75.35 C171.194,75.294 172.007,75.002 173.633,75.079 C175.292,75.167 176.872,75.623 178.291,76.568 C183.741,80.194 184.513,88.976 184.796,95.401 C184.957,99.068 185.401,107.941 185.552,110.488 C185.899,116.312 187.43,117.133 190.527,118.153 C192.269,118.727 193.886,119.154 196.269,119.823 C203.482,121.848 207.759,123.903 210.454,126.542 C212.062,128.191 212.81,129.944 213.041,131.615 C213.891,137.82 208.223,145.485 193.219,152.45 C176.817,160.062 156.919,161.99 143.171,160.459 C142.117,160.342 138.367,159.917 138.354,159.915 C127.357,158.434 121.084,172.646 127.684,182.383 C131.938,188.658 143.524,192.742 155.116,192.744 C181.695,192.748 202.124,181.397 209.723,171.595 C209.951,171.302 209.973,171.27 210.331,170.728 C210.705,170.165 210.397,169.854 209.931,170.173 C203.722,174.421 176.145,191.287 146.647,186.213 C146.647,186.213 143.063,185.624 139.791,184.351 C137.191,183.34 131.749,180.836 131.088,175.253 C154.893,182.615 169.882,175.655 169.882,175.655 Z M39.13,119.082 C30.851,120.692 23.554,125.384 19.092,131.865 C16.425,129.641 11.457,125.335 10.579,123.657 C3.456,110.131 18.354,83.831 28.761,68.98 C54.481,32.276 94.765,4.494 113.413,9.535 C116.445,10.393 126.485,22.034 126.485,22.034 C126.485,22.034 107.845,32.377 90.558,46.794 C67.265,64.729 49.67,90.796 39.13,119.082 Z M53.041,181.152 C51.788,181.366 50.51,181.451 49.221,181.42 C36.765,181.086 23.309,169.871 21.972,156.572 C20.494,141.872 28.005,130.559 41.304,127.876 C42.894,127.556 44.815,127.371 46.887,127.479 C54.338,127.887 65.319,133.608 67.827,149.841 C70.049,164.217 66.52,178.853 53.041,181.152 Z M221.784,155.122 C221.677,154.745 220.982,152.204 220.027,149.142 C219.072,146.079 218.083,143.924 218.083,143.924 C221.914,138.188 221.982,133.059 221.473,130.153 C220.929,126.552 219.43,123.483 216.408,120.311 C213.386,117.139 207.206,113.89 198.52,111.451 C197.527,111.172 194.251,110.273 193.963,110.186 C193.941,109.998 193.723,99.442 193.526,94.911 C193.382,91.635 193.101,86.521 191.514,81.483 C189.623,74.666 186.328,68.7 182.216,64.883 C193.565,53.119 200.65,40.159 200.633,29.04 C200.6,7.66 174.342,1.19 141.983,14.59 C141.949,14.604 135.176,17.476 135.127,17.501 C135.096,17.471 122.732,5.339 122.546,5.177 C85.652,-27.003 -29.699,101.213 7.181,132.353 L15.241,139.181 C13.15,144.597 12.329,150.802 13,157.475 C13.861,166.045 18.282,174.26 25.447,180.607 C32.249,186.634 41.192,190.448 49.87,190.441 C64.222,223.514 97.014,243.803 135.462,244.945 C176.705,246.17 211.326,226.817 225.833,192.054 C226.782,189.614 230.809,178.621 230.809,168.917 C230.809,159.164 225.295,155.122 221.784,155.122 L221.784,155.122 Z" id="Fill-21" fill="#1A1919" mask="url(#mask-4)"></path>
    </g>
  </g>
</svg>
